Coordinates
version=1
nRows=8
nColumns=46
inDegrees=yes

Units are S.I. units (second, meters, Newtons, ...)
Angles are in degrees.

endheader
time	pelvis_tilt	pelvis_list	pelvis_rotation	pelvis_tx	pelvis_ty	pelvis_tz	bb_angle	bb_tx	bb_ty	bb_tz	hip_flexion_r	hip_adduction_r	hip_rotation_r	knee_angle_r	knee_angle_r_beta	ankle_angle_r	subtalar_angle_r	mtp_angle_r	crank_angle_r	hip_flexion_l	hip_adduction_l	hip_rotation_l	knee_angle_l	knee_angle_l_beta	ankle_angle_l	subtalar_angle_l	mtp_angle_l	crank_angle_l	lumbar_extension	lumbar_bending	lumbar_rotation	arm_flex_r	arm_add_r	arm_rot_r	elbow_flex_r	pro_sup_r	wrist_flex_r	wrist_dev_r	arm_flex_l	arm_add_l	arm_rot_l	elbow_flex_l	pro_sup_l	wrist_flex_l	wrist_dev_l
      5.00500000	    -16.19759149	      3.17866274	     -6.81045650	      0.17233628	      1.05078471	     -0.22765526	      0.00000000	      0.50000000	      0.00000000	      0.25000000	     51.53248691	     -4.24200989	      1.26528902	     40.32462235	      0.70379743	     -4.85998479	      0.71834483	      0.00000000	      0.00000000	     69.49708104	     -5.31516110	     -0.57440800	    108.94273527	      1.90140943	    -12.07087065	    -18.78510276	      0.00000000	      0.00000000	    -61.80143540	     -2.80311545	     -3.15808944	     77.11006585	    -18.46217151	     32.40180276	     81.84607359	     51.19339365	      0.00000000	      0.00000000	     64.35147630	    -22.08310416	      8.63705808	     86.61889802	     50.61988296	      0.00000000	      0.00000000
      5.01000000	    -15.84954141	      3.06021000	     -6.55629403	      0.17279010	      1.05167598	     -0.22647496	      0.00000000	      0.50000000	      0.00000000	      0.25000000	     49.61374026	     -4.37834659	      0.78890935	     38.21454156	      0.66696957	     -7.08545448	      0.69611676	      0.00000000	      0.00000000	     70.60188230	     -5.29893607	     -0.02279057	    110.55052833	      1.92947071	    -11.27409447	    -18.15351143	      0.00000000	      0.00000000	    -61.92246638	     -2.80323530	     -3.59548921	     77.17557500	    -17.13917158	     31.73033509	     80.16168326	     50.91220609	      0.00000000	      0.00000000	     64.49205643	    -22.85695779	      9.59645570	     86.16424544	     50.71471304	      0.00000000	      0.00000000
      5.01500000	    -15.70849558	      3.16907043	     -6.04633926	      0.17319241	      1.05249063	     -0.22536049	      0.00000000	      0.50000000	      0.00000000	      0.25000000	     48.11701957	     -4.88849139	      0.22169186	     36.48217308	      0.63673404	     -9.11984185	      1.28076363	      0.00000000	      0.00000000	     71.93873680	     -4.95084502	      0.32588970	    111.93097791	      1.95356410	    -10.86272480	    -18.19249212	      0.00000000	      0.00000000	    -61.96878906	     -2.81686540	     -4.04826000	     77.01172384	    -17.00120500	     31.53651258	     79.97611359	     50.87176296	      0.00000000	      0.00000000	     64.65881105	    -22.89844180	      9.70039063	     86.22425793	     50.74050179	      0.00000000	      0.00000000
      5.02000000	    -15.75322588	      3.35746102	     -5.56592949	      0.17310754	      1.05337713	     -0.22457933	      0.00000000	      0.50000000	      0.00000000	      0.25000000	     46.80540843	     -5.43216966	     -0.33061369	     34.60273771	      0.60393170	    -11.33101219	      1.82611607	      0.00000000	      0.00000000	     73.46982199	     -4.49632804	      0.60854839	    113.14630677	      1.97477559	    -10.33237924	    -18.26951564	      0.00000000	      0.00000000	    -61.93535807	     -2.89663230	     -4.60851527	     77.02277608	    -16.79570550	     31.27284686	     79.74192275	     50.81657182	      0.00000000	      0.00000000	     65.00079790	    -22.88645363	     10.00810345	     86.29399625	     50.78639425	      0.00000000	      0.00000000
      5.02500000	    -15.68913374	      3.18609275	     -5.07726965	      0.17296510	      1.05477982	     -0.22369750	      0.00000000	      0.50000000	      0.00000000	      0.25000000	     45.28078001	     -5.66357733	     -1.28736828	     32.67633579	      0.57030965	    -13.94952277	      1.73293577	      0.00000000	      0.00000000	     74.90227359	     -4.25934017	      1.20984393	    114.28114748	      1.99458230	     -9.51442865	    -18.05837621	      0.00000000	      0.00000000	    -62.06877691	     -2.68559291	     -4.95073593	     77.11061499	    -15.92174911	     30.28544484	     78.91278533	     50.62311830	      0.00000000	      0.00000000	     65.43063680	    -23.50222089	     10.82089867	     86.29665546	     50.89716078	      0.00000000	      0.00000000
      5.03000000	    -15.79782002	      3.22888797	     -4.42473256	      0.17251781	      1.05606750	     -0.22324703	      0.00000000	      0.50000000	      0.00000000	      0.25000000	     44.11121469	     -6.20108337	     -2.08397115	     31.06303485	      0.54215223	    -16.39903014	      2.30480117	      0.00000000	      0.00000000	     76.51680928	     -3.63111769	      1.63759767	    115.19135427	      2.01046840	     -9.11547422	    -18.29734459	      0.00000000	      0.00000000	    -62.08072864	     -2.49663450	     -5.49104745	     77.05438862	    -15.64468883	     29.92706356	     78.67783783	     50.57739771	      0.00000000	      0.00000000	     65.76679851	    -23.79242769	     11.18836382	     86.41497145	     50.96861899	      0.00000000	      0.00000000
      5.03500000	    -16.00782317	      3.30779531	     -3.79617651	      0.17198656	      1.05750390	     -0.22267338	      0.00000000	      0.50000000	      0.00000000	      0.25000000	     43.09046967	     -6.72480932	     -2.99236011	     29.48882074	      0.51467701	    -18.91937536	      2.82183148	      0.00000000	      0.00000000	     78.19488041	     -3.03974292	      2.00661874	    115.91014991	      2.02301375	     -8.36513113	    -18.31672307	      0.00000000	      0.00000000	    -62.04974479	     -2.37423045	     -6.04898385	     76.93099480	    -15.51457241	     29.73017341	     78.59345382	     50.56170067	      0.00000000	      0.00000000	     66.14355809	    -23.98680684	     11.50581901	     86.55000492	     51.02839153	      0.00000000	      0.00000000
      5.04000000	    -16.45576164	      3.34666453	     -3.26122709	      0.17114437	      1.05846168	     -0.22211003	      0.00000000	      0.50000000	      0.00000000	      0.25000000	     42.43471723	     -7.12401504	     -3.81985634	     28.10644064	      0.49054993	    -21.26942425	      3.37838543	      0.00000000	      0.00000000	     80.11535900	     -2.49861284	      2.40565933	    116.50358444	      2.03337114	     -8.15032029	    -18.14470378	      0.00000000	      0.00000000	    -61.83719964	     -2.31282601	     -6.50406359	     76.87023580	    -15.51930374	     29.62516822	     78.57826488	     50.55739758	      0.00000000	      0.00000000	     66.67143917	    -24.12219932	     11.67208068	     86.73434278	     51.07262253	      0.00000000	      0.00000000
